<?xml version="1.0" encoding="utf-8"?>
<!-- Generator: Adobe Illustrator 25.0.0, SVG Export Plug-In . SVG Version: 6.00 Build 0)  -->
<svg version="1.1" id="Layer_1" xmlns="http://www.w3.org/2000/svg" xmlns:xlink="http://www.w3.org/1999/xlink" x="0px" y="0px"
	 viewBox="0 0 105.7 105.1" style="enable-background:new 0 0 105.7 105.1;" xml:space="preserve">
<style type="text/css">
	.st0{fill:#1E1E1E;}
</style>
<g>
	<path class="st0" d="M63.1,34.8c6.5,4.7,7.2,7,1.6,11.8c-4.1,3.5-9.6,6-14.8,7.3c-4.8,1.2-10.2,0.3-15.6,0.3c0-10.4,0-20.5,0-30.9
		c0.5-0.2,1.1-0.6,1.7-0.6c10.5,0.1,21-0.3,31.5,0.4C80.9,23.9,90,33.5,90.3,46.2c0.3,14.5-8,24.7-21.9,26.2
		C62.3,73,56.1,72.7,50,72.8c-2.1,0-4.3,0-6.9,0c0,5.2,0,10,0,14.8c0,4.6,0,9.3,0,14.3c-9.3,0-18.4,0-27.7,0c0-32.5,0-64.7,0-97.8
		c4.1,0,8.2-0.1,12.3,0c8.5,0.3,17,0,25.4,1.2c7.3,1.1,13.1,5.3,15.4,13.1c-4.1,2.2-7.3,2-10.8-0.9c-2.7-2.2-6.5-3.9-9.9-4.1
		c-7.6-0.6-15.3-0.2-23.3-0.2c0,26.6,0,53,0,79.7c2.9,0,5.9,0,9.3,0c0-9.3,0-18.7,0-28.7c2.2-0.1,3.9-0.2,5.7-0.3
		c9.3-0.2,18.7,0.1,27.9-0.7c8.9-0.8,14.3-7.6,14.1-16.4c-0.3-8.3-6.3-14.7-14.9-15.2c-6.8-0.4-13.7-0.2-20.5-0.3
		c-0.8,0-1.6,0.2-2.6,0.3c0,4.5,0,8.7,0,13C51.2,46.1,53.9,44.8,63.1,34.8z"/>
</g>
</svg>
